<svg width="30" height="31" viewBox="0 0 30 31" fill="none" xmlns="http://www.w3.org/2000/svg">
<path d="M13.625 3.125C7.87501 3.75 3.25001 8.375 2.62501 14C2.00001 19.875 5.37501 25.125 10.5 27.125C10.875 27.25 11.25 27 11.25 26.5V24.5C11.25 24.5 10.75 24.625 10.125 24.625C8.37501 24.625 7.62501 23.125 7.50001 22.25C7.37501 21.75 7.12501 21.375 6.75001 21C6.37501 20.875 6.25001 20.875 6.25001 20.75C6.25001 20.5 6.62501 20.5 6.75001 20.5C7.50001 20.5 8.12501 21.375 8.37501 21.75C9.00001 22.75 9.75001 23 10.125 23C10.625 23 11 22.875 11.25 22.75C11.375 21.875 11.75 21 12.5 20.5C9.62501 19.875 7.50001 18.25 7.50001 15.5C7.50001 14.125 8.12501 12.75 9.00001 11.75C8.87501 11.5 8.75001 10.875 8.75001 10C8.75001 9.5 8.75001 8.75 9.12501 8C9.12501 8 10.875 8 12.625 9.625C13.25 9.375 14.125 9.25 15 9.25C15.875 9.25 16.75 9.375 17.5 9.625C19.125 8 21 8 21 8C21.25 8.75 21.25 9.5 21.25 10C21.25 11 21.125 11.5 21 11.75C21.875 12.75 22.5 14 22.5 15.5C22.5 18.25 20.375 19.875 17.5 20.5C18.25 21.125 18.75 22.25 18.75 23.375V26.625C18.75 27 19.125 27.375 19.625 27.25C24.25 25.375 27.5 20.875 27.5 15.625C27.5 8.125 21.125 2.25 13.625 3.125Z" fill="#7A9F8A" fill-opacity="0.75"/>
</svg>
