<svg width="30" height="31" viewBox="0 0 30 31" fill="none" xmlns="http://www.w3.org/2000/svg">
<path d="M9.60005 2.29999C5.29805 2.29999 1.80005 5.79799 1.80005 10.1V20.9C1.80005 25.202 5.29805 28.7 9.60005 28.7H20.4C24.702 28.7 28.2 25.202 28.2 20.9V10.1C28.2 5.79799 24.702 2.29999 20.4 2.29999H9.60005ZM22.2 7.09999C22.86 7.09999 23.4 7.63999 23.4 8.29999C23.4 8.95999 22.86 9.49999 22.2 9.49999C21.54 9.49999 21 8.95999 21 8.29999C21 7.63999 21.54 7.09999 22.2 7.09999ZM15 8.89999C18.642 8.89999 21.6 11.858 21.6 15.5C21.6 19.142 18.642 22.1 15 22.1C11.358 22.1 8.40005 19.142 8.40005 15.5C8.40005 11.858 11.358 8.89999 15 8.89999ZM15 10.1C12.024 10.1 9.60005 12.524 9.60005 15.5C9.60005 18.476 12.024 20.9 15 20.9C17.976 20.9 20.4 18.476 20.4 15.5C20.4 12.524 17.976 10.1 15 10.1Z" fill="#7A9F8A" fill-opacity="0.75"/>
</svg>
