<svg width="30" height="31" viewBox="0 0 30 31" fill="none" xmlns="http://www.w3.org/2000/svg">
<path d="M5.26312 9.25H5.29562C7.03937 9.25 8.125 8 8.125 6.4375C8.0925 4.84062 7.03937 3.625 5.32875 3.625C3.61812 3.625 2.5 4.84062 2.5 6.4375C2.5 8 3.585 9.25 5.26312 9.25ZM2.5 11.125H8.125V27.375H2.5V11.125ZM27.5 17.0625C27.5 13.7831 24.8419 11.125 21.5625 11.125C19.6544 11.125 17.9613 12.0288 16.875 13.4275V11.125H11.25V27.375H16.875V18C16.875 16.6194 17.9944 15.5 19.375 15.5C20.7556 15.5 21.875 16.6194 21.875 18V27.375H27.5C27.5 27.375 27.5 17.9719 27.5 17.0625Z" fill="#7A9F8A" fill-opacity="0.75"/>
</svg>
