<svg width="60" height="61" viewBox="0 0 60 61" fill="none" xmlns="http://www.w3.org/2000/svg">
<path d="M25.5137 42.5697C35.4048 42.5697 43.4232 34.517 43.4232 24.5835C43.4232 14.65 35.4048 6.59735 25.5137 6.59735C15.6225 6.59735 7.60413 14.65 7.60413 24.5835C7.60413 34.517 15.6225 42.5697 25.5137 42.5697Z" fill="#222601" fill-opacity="0.02" stroke="black"/>
<path d="M53.4608 53.8803L37.5576 37.8973L36.8916 38.5657L52.7948 54.5487L53.4608 53.8803Z" fill="black"/>
<path d="M53.6148 53.6381L42.4526 42.4759C42.4388 42.4621 42.4164 42.4621 42.4026 42.4759L41.3607 43.5178C41.3469 43.5316 41.3469 43.554 41.3607 43.5678L52.5229 54.73C52.5367 54.7438 52.5591 54.7438 52.5729 54.73L53.6148 53.6881C53.6286 53.6743 53.6286 53.6519 53.6148 53.6381Z" fill="#222601" stroke="#222601" stroke-width="0.278365"/>
<path d="M19.373 25.4301C20.3874 24.7949 20.4361 23.0444 19.4818 21.5203C18.5274 19.9961 16.9314 19.2755 15.917 19.9106C14.9026 20.5458 14.8538 22.2963 15.8082 23.8205C16.7625 25.3446 18.3585 26.0653 19.373 25.4301Z" fill="#222601"/>
<path d="M22.9322 22.2098C24.0972 21.9356 24.7076 20.2943 24.2956 18.5438C23.8836 16.7934 22.6051 15.5967 21.44 15.8709C20.275 16.1452 19.6646 17.7865 20.0766 19.5369C20.4887 21.2874 21.7671 22.4841 22.9322 22.2098Z" fill="#222601"/>
<path d="M27.4929 21.3576C28.6898 21.3625 29.666 19.9087 29.6733 18.1104C29.6807 16.3122 28.7164 14.8504 27.5195 14.8455C26.3227 14.8406 25.3465 16.2945 25.3391 18.0927C25.3318 19.891 26.2961 21.3527 27.4929 21.3576Z" fill="#222601"/>
<path d="M31.4991 23.3725C32.632 23.7586 34.0207 22.6918 34.6008 20.9896C35.181 19.2875 34.7329 17.5946 33.6 17.2085C32.4671 16.8224 31.0784 17.8893 30.4983 19.5914C29.9182 21.2935 30.3663 22.9864 31.4991 23.3725Z" fill="#222601"/>
<path d="M26.7479 30.8324C29.7364 30.131 31.7124 27.6592 31.1614 25.3116C30.6103 22.964 27.741 21.6295 24.7525 22.3309C21.764 23.0324 19.788 25.5041 20.339 27.8518C20.8901 30.1994 23.7594 31.5339 26.7479 30.8324Z" fill="#222601"/>
<path d="M27.204 29.2116C28.0709 26.4891 27.1633 23.6987 25.1767 22.979C23.1901 22.2592 20.8769 23.8828 20.01 26.6052C19.1431 29.3276 20.0507 32.1181 22.0373 32.8378C24.0239 33.5575 26.3371 31.934 27.204 29.2116Z" fill="#222601"/>
<path d="M31.4331 24.9466C29.8524 22.5666 27.108 21.5281 25.3033 22.627C23.4986 23.7259 23.3171 26.5462 24.8978 28.9262C26.4786 31.3062 29.223 32.3447 31.0277 31.2458C32.8323 30.1469 33.0139 27.3266 31.4331 24.9466Z" fill="#222601"/>
</svg>
